<?xml version="1.0" encoding="utf-8"?>
<!-- Generator: Adobe Illustrator 21.0.2, SVG Export Plug-In . SVG Version: 6.00 Build 0)  -->
<!DOCTYPE svg PUBLIC "-//W3C//DTD SVG 1.1//EN" "http://www.w3.org/Graphics/SVG/1.1/DTD/svg11.dtd">
<svg version="1.1" id="Layer_1" xmlns="http://www.w3.org/2000/svg" xmlns:xlink="http://www.w3.org/1999/xlink" x="0px" y="0px"
	 viewBox="0 0 1740 1087" style="enable-background:new 0 0 1740 1087;" xml:space="preserve">
<style type="text/css">
	.st0{fill:url(#BG_1_);}
	.st1{opacity:0.297;fill:none;stroke:url(#Oval_8_);stroke-width:2;enable-background:new    ;}
	.st2{opacity:0.1231;fill:none;stroke:url(#Oval_13_);stroke-width:2;enable-background:new    ;}
	.st3{opacity:7.965353e-02;fill:none;stroke:url(#Oval_14_);stroke-width:2;enable-background:new    ;}
	.st4{opacity:9.414629e-02;fill:none;stroke:url(#Oval_15_);stroke-width:2;enable-background:new    ;}
	.st5{opacity:0.1086;fill:#FFFFFF;enable-background:new    ;}
	.st6{filter:url(#filter-17);}
	.st7{fill:url(#SVGID_1_);}
	.st8{filter:url(#filter-19);}
	.st9{fill:url(#SVGID_2_);}
	.st10{filter:url(#filter-21);}
	.st11{fill:url(#SVGID_3_);}
	.st12{filter:url(#filter-23);}
	.st13{fill:url(#SVGID_4_);}
</style>
<filter  filterUnits="objectBoundingBox" height="100.0%" id="filter-23" width="100.0%" x="0.0%" y="0.0%">
	<feGaussianBlur  in="SourceGraphic" stdDeviation="0"></feGaussianBlur>
</filter>
<filter  filterUnits="objectBoundingBox" height="100.0%" id="filter-21" width="100.0%" x="0.0%" y="0.0%">
	<feGaussianBlur  in="SourceGraphic" stdDeviation="0"></feGaussianBlur>
</filter>
<filter  filterUnits="objectBoundingBox" height="100.0%" id="filter-19" width="100.0%" x="0.0%" y="0.0%">
	<feGaussianBlur  in="SourceGraphic" stdDeviation="0"></feGaussianBlur>
</filter>
<filter  filterUnits="objectBoundingBox" height="100.0%" id="filter-17" width="100.0%" x="0.0%" y="0.0%">
	<feGaussianBlur  in="SourceGraphic" stdDeviation="0"></feGaussianBlur>
</filter>
<title>background</title>
<desc>Created with Sketch.</desc>
<g id="Page-1">
	<g id="First-Steps">
		<g id="Group" transform="translate(0.000000, -549.000000)">
			<g id="background">
				<g id="bg">
					
						<linearGradient id="BG_1_" gradientUnits="userSpaceOnUse" x1="820.0283" y1="1143.6609" x2="820.0293" y2="1142.6913" gradientTransform="matrix(1740 0 0 -748 -1425980 856007)">
						<stop  offset="0" style="stop-color:#00111C"/>
						<stop  offset="0.3259" style="stop-color:#0F125F"/>
						<stop  offset="0.8056" style="stop-color:#5CC3D2"/>
						<stop  offset="1" style="stop-color:#C8FFE5"/>
					</linearGradient>
					<path id="BG" class="st0" d="M-1,549h1742v640.8c-290,71.4-581,107.2-871,107.2s-581-35.7-871-107.2V549z"/>
					
						<linearGradient id="Oval_8_" gradientUnits="userSpaceOnUse" x1="819.9937" y1="1143.1304" x2="820.0057" y2="1142.3022" gradientTransform="matrix(1635 0 0 -1635 -1339835 1869299)">
						<stop  offset="0" style="stop-color:#FFFFFF;stop-opacity:0"/>
						<stop  offset="1" style="stop-color:#FFFFFF"/>
					</linearGradient>
					<circle id="Oval" class="st1" cx="862.5" cy="817.5" r="817.5"/>
					
						<linearGradient id="Oval_13_" gradientUnits="userSpaceOnUse" x1="819.7938" y1="1143.3237" x2="819.9265" y2="1142.5297" gradientTransform="matrix(1297 0 0 -1297 -1062506 1483134)">
						<stop  offset="0" style="stop-color:#FFFFFF;stop-opacity:0"/>
						<stop  offset="1" style="stop-color:#FFFFFF"/>
					</linearGradient>
					<circle id="Oval_1_" class="st2" cx="862.5" cy="817.5" r="648.5"/>
					
						<linearGradient id="Oval_14_" gradientUnits="userSpaceOnUse" x1="819.6823" y1="1143.4141" x2="819.7209" y2="1142.7872" gradientTransform="matrix(1037 0 0 -1037 -849176 1186084)">
						<stop  offset="0" style="stop-color:#FFFFFF;stop-opacity:0"/>
						<stop  offset="1" style="stop-color:#FFFFFF"/>
					</linearGradient>
					<circle id="Oval_2_" class="st3" cx="862.5" cy="817.5" r="518.5"/>
					
						<linearGradient id="Oval_15_" gradientUnits="userSpaceOnUse" x1="819.4281" y1="1143.6458" x2="819.4281" y2="1142.6458" gradientTransform="matrix(765 0 0 -765 -625999 875325)">
						<stop  offset="0" style="stop-color:#FFFFFF;stop-opacity:0"/>
						<stop  offset="1" style="stop-color:#FFFFFF"/>
					</linearGradient>
					<circle id="Oval_3_" class="st4" cx="863.5" cy="818.5" r="382.5"/>
				</g>
				<g id="icons" transform="translate(64.000000, 612.000000)">
					<path id="B" class="st5" d="M251,625l7.6,7.8c3.5,3.6,5.5,6.7,6.1,9.3c0.6,2.6-0.2,4.9-2.4,7c-1.5,1.4-3.1,2.2-4.8,2.3
						c-1.7,0.1-3.4-0.4-5.1-1.7l-0.2,0.2c1.5,2.2,2.1,4.2,2,6c-0.1,1.8-1,3.5-2.7,5.1c-2.2,2.2-4.8,3.1-7.7,2.6
						c-2.9-0.4-5.7-2.1-8.6-5.1l-9.2-9.5L251,625z M244.8,639.3l4,4.2c1.7,1.8,3.3,2.9,4.6,3.2c1.3,0.3,2.7-0.2,4-1.4
						c1.2-1.1,1.6-2.4,1.3-3.8c-0.3-1.4-1.5-3.1-3.3-5l-3.6-3.7L244.8,639.3z M241.5,642.5l-7.9,7.7l4.4,4.6
						c1.7,1.8,3.4,2.8,4.9,3.1c1.5,0.3,3-0.3,4.4-1.6c1.3-1.3,1.8-2.7,1.5-4.2c-0.3-1.5-1.3-3.3-3.2-5.2L241.5,642.5z"/>
					<path id="Combined-Shape_1_" class="st5" d="M239.6,113.5l28.8-2.1l0.2,3.2l-28.8,2.1L239.6,113.5z M238,91.1l28.8-2.1l0.2,3.2
						l-28.8,2.1L238,91.1z M253.2,101.2l14.4-1l0.2,3.2l-14.4,1L253.2,101.2z M248.5,103.2l-9.3,5.5l-0.7-9.6L248.5,103.2z"/>
					<path id="Combined-Shape_2_" class="st5" d="M61.2,138l12.9,31.1c1.5,3.5,2,7,1.5,10.3s-1.8,6.3-4.2,8.9
						c-2.3,2.6-5.5,4.8-9.5,6.5c-6,2.5-11.4,2.9-16,1.1c-4.7-1.8-8.1-5.4-10.4-10.9l-12.8-31l9.9-4.1l12.2,29.4
						c1.5,3.7,3.4,6.1,5.6,7.2c2.2,1.1,4.9,1,8.3-0.4c3.3-1.4,5.3-3.2,6-5.6c0.7-2.4,0.3-5.4-1.2-9.1l-12.2-29.3L61.2,138z
						 M40.5,212.8l49.4-20.5l3.5,8.4l-49.4,20.5L40.5,212.8z"/>
					<path id="Rectangle-21-Copy" class="st5" d="M598.2,31.2c0.4,3.5,3.5,6,7,5.7s6-3.5,5.7-7c-0.4-3.5-3.5-6-7-5.7
						C600.4,24.6,597.9,27.7,598.2,31.2z M595,31.5c-0.5-5.2,3.3-9.9,8.5-10.5c5.2-0.5,9.9,3.3,10.4,8.5c0.5,5.2-3.3,9.9-8.5,10.5
						C600.2,40.6,595.6,36.7,595,31.5z"/>
					<path id="Rectangle-21-Copy_1_" class="st5" d="M1231.5,344.2c0.4,3.9,3.8,6.7,7.7,6.3c3.8-0.4,6.6-3.8,6.3-7.7
						c-0.4-3.9-3.8-6.7-7.7-6.3C1233.9,336.9,1231.1,340.4,1231.5,344.2z M1228.1,344.6c-0.6-5.8,3.6-10.9,9.4-11.5
						c5.8-0.6,10.9,3.6,11.5,9.4s-3.6,10.9-9.4,11.5C1233.8,354.6,1228.6,350.4,1228.1,344.6z"/>
					<path id="Combined-Shape_4_" class="st5" d="M1054.5,32.3l19.8-9.7l1.4,2.8l-19.8,9.7L1054.5,32.3z M1043.5,9.7l19.8-9.7
						l1.4,2.8l-19.8,9.7L1043.5,9.7z M1048.3,19.6l19.8-9.7l1.4,2.8l-19.8,9.7L1048.3,19.6z M1046,36.5l2.8-1.4l1.4,2.8l-2.8,1.4
						L1046,36.5z M1035,13.9l2.8-1.4l1.4,2.8l-2.8,1.4L1035,13.9z M1039.8,23.8l2.8-1.4l1.4,2.8l-2.8,1.4L1039.8,23.8z"/>
					<path id="Aa" class="st5" d="M1398.9,583.6l-4.6-7.1l-10.6,2.5l-0.9,8.3l-4.8,1.1l3.9-30.3l4.9-1.2l16.9,25.4L1398.9,583.6z
						 M1392.2,572.9l-4.4-6.9c-0.3-0.5-0.8-1.2-1.3-2.2c-0.6-1-1-1.8-1.3-2.2c0,1.6-0.1,3.5-0.3,5.5l-0.8,7.8L1392.2,572.9z
						 M1419.5,578.7l-1.3-2.2l-0.1,0c-0.6,1.2-1.2,2.1-2,2.7c-0.7,0.6-1.8,1-3.1,1.3c-1.7,0.4-3.1,0.2-4.3-0.4
						c-1.2-0.7-1.9-1.9-2.3-3.5c-0.4-1.8-0.1-3.3,1-4.5c1.1-1.2,3-2.2,5.7-2.9l2.9-0.8l-0.2-0.9c-0.3-1.1-0.7-1.9-1.3-2.3
						c-0.6-0.4-1.5-0.5-2.6-0.3c-0.9,0.2-1.7,0.5-2.4,1c-0.7,0.4-1.5,0.9-2.1,1.5l-1.8-2.3c0.8-0.7,1.7-1.3,2.8-1.8
						c1-0.5,2.1-0.9,3-1.1c2.2-0.5,3.9-0.4,5.3,0.3c1.3,0.7,2.2,2.1,2.7,4.1l2.7,11.6L1419.5,578.7z M1413.5,577.5
						c1.3-0.3,2.3-0.9,2.9-1.9c0.6-0.9,0.8-2.1,0.5-3.4l-0.3-1.5l-2.2,0.6c-1.7,0.5-2.9,1-3.5,1.7c-0.7,0.7-0.9,1.6-0.6,2.6
						c0.2,0.8,0.5,1.3,1.1,1.6C1411.8,577.7,1412.6,577.7,1413.5,577.5z"/>
					<path id="Rectangle-21-Copy-3" class="st5" d="M1545.8,84.9c-5.5-3.5-12.8-2-16.3,3.5s-2,12.8,3.5,16.4
						c5.5,3.5,12.8,2,16.3-3.5S1551.3,88.4,1545.8,84.9z M1551.9,74.7c10.8,7,13.9,21.4,7,32.3s-21.4,14-32.2,7
						c-10.8-7-13.9-21.4-7-32.3S1541.1,67.7,1551.9,74.7z"/>
					<g id="Oval_4_" class="st6">
						
							<linearGradient id="SVGID_1_" gradientUnits="userSpaceOnUse" x1="724.4764" y1="539.9218" x2="724.9426" y2="539.2509" gradientTransform="matrix(30 0 0 -30 -21446 16514)">
							<stop  offset="0" style="stop-color:#FF744D"/>
							<stop  offset="1" style="stop-color:#E2056E"/>
						</linearGradient>
						<circle class="st7" cx="295" cy="326" r="15"/>
					</g>
					<g id="Oval_5_" class="st8">
						
							<linearGradient id="SVGID_2_" gradientUnits="userSpaceOnUse" x1="729.1667" y1="547.4667" x2="729.1667" y2="546.4667" gradientTransform="matrix(30 0 0 -30 -20262 16702)">
							<stop  offset="0" style="stop-color:#3BF58A"/>
							<stop  offset="1" style="stop-color:#3BA0C6"/>
						</linearGradient>
						<circle class="st9" cx="1613" cy="293" r="15"/>
					</g>
					<g id="Oval_6_" class="st10">
						
							<linearGradient id="SVGID_3_" gradientUnits="userSpaceOnUse" x1="728.9105" y1="547.4578" x2="729.4322" y2="546.4578" gradientTransform="matrix(30 0 0 -30 -21860 16844)">
							<stop  offset="0" style="stop-color:#3AE2FF"/>
							<stop  offset="1" style="stop-color:#5631F3"/>
						</linearGradient>
						<circle class="st11" cx="15" cy="435" r="15"/>
					</g>
					<g id="Oval_7_" class="st12">
						
							<linearGradient id="SVGID_4_" gradientUnits="userSpaceOnUse" x1="733.847" y1="543.9996" x2="734.2545" y2="543.0526" gradientTransform="matrix(30 0 0 -30 -20704 16522)">
							<stop  offset="0" style="stop-color:#FAD961"/>
							<stop  offset="1" style="stop-color:#F75F1C"/>
						</linearGradient>
						<circle class="st13" cx="1317" cy="215" r="15"/>
					</g>
				</g>
			</g>
		</g>
	</g>
</g>
</svg>
