<?xml version="1.0" encoding="UTF-8"?>
<svg width="382px" height="410px" viewBox="0 0 382 410" version="1.1" xmlns="http://www.w3.org/2000/svg" xmlns:xlink="http://www.w3.org/1999/xlink">
    <!-- Generator: Sketch 46.2 (44496) - http://www.bohemiancoding.com/sketch -->
    <title>qards-image</title>
    <desc>Created with Sketch.</desc>
    <defs>
        <linearGradient x1="1.44424438%" y1="0%" x2="100%" y2="100%" id="linearGradient-1">
            <stop stop-color="#17EAD9" offset="0%"></stop>
            <stop stop-color="#6078EA" offset="100%"></stop>
        </linearGradient>
        <linearGradient x1="0%" y1="0%" x2="100%" y2="100%" id="linearGradient-2">
            <stop stop-color="#FCE38A" offset="0%"></stop>
            <stop stop-color="#F38181" offset="100%"></stop>
        </linearGradient>
        <filter x="0.0%" y="0.0%" width="100.0%" height="100.0%" filterUnits="objectBoundingBox" id="filter-3">
            <feGaussianBlur stdDeviation="0" in="SourceGraphic"></feGaussianBlur>
        </filter>
        <linearGradient x1="100%" y1="100%" x2="0%" y2="0%" id="linearGradient-4">
            <stop stop-color="#FF7676" offset="0%"></stop>
            <stop stop-color="#F54EA2" offset="100%"></stop>
        </linearGradient>
        <filter x="0.0%" y="0.0%" width="100.0%" height="100.0%" filterUnits="objectBoundingBox" id="filter-5">
            <feGaussianBlur stdDeviation="0" in="SourceGraphic"></feGaussianBlur>
        </filter>
    </defs>
    <g id="Page-1" stroke="none" stroke-width="1" fill="none" fill-rule="evenodd">
        <g id="First-Steps" transform="translate(-1033.000000, -1126.000000)">
            <g id="Group-6" transform="translate(380.000000, 1073.000000)">
                <g id="qards-image" transform="translate(653.000000, 53.000000)">
                    <g id="Group-4" transform="translate(22.000000, 0.000000)">
                        <circle id="Oval" fill="url(#linearGradient-1)" cx="180" cy="180" r="180"></circle>
                        <g id="Logo" transform="translate(68.000000, 160.000000)" fill="#FFFFFF">
                            <path d="M34.6153866,5.96786351 C30.846154,2.01512272 26.0769251,0 20.153847,0 C14.2307696,0 9.46153898,2.01512272 5.69230822,6.04536855 C1.92307738,10.075614 0,14.8809076 0,20.5387516 L0,20.6162563 C0,26.2741026 1.84615407,31.0793924 5.61538483,35.0321356 C9.38461559,38.984878 14.1538473,41 20.0769239,41 C24.6153858,41 28.4615399,39.8374292 31.7692317,37.4347835 L34.9230766,40.6124764 L40.3846147,40.6124764 L23.8461519,24.1039704 L23.8461519,29.4517978 L28.76923,34.4896048 C26.3076905,36.1947095 23.4615365,37.0472599 20.2307678,37.0472599 C15.7692282,37.0472599 12.0769202,35.4971654 9.07692064,32.3194734 C6.07692063,29.0642742 4.61538167,25.1890381 4.61538167,20.6162594 L4.61538167,20.5387547 C4.61538167,15.965976 6.07692063,12.09074 8.99999725,8.99055112 C11.923074,5.81285717 15.6153828,4.2627631 20.0769208,4.2627631 C24.5384573,4.2627631 28.2307676,5.81285717 31.2307694,8.99055112 C34.1538458,12.1682451 35.6923074,16.0434815 35.6923074,20.6162594 L35.6923074,20.6937649 C35.6923074,24.1814774 34.8461551,27.2041624 33.1538465,29.8393214 L35.7692328,33.7920608 C38.8461561,30.0718348 40.3076955,25.6540649 40.3076955,20.6162579 L40.3076955,20.5387531 C40.3076955,14.8034036 38.3846184,10.0756155 34.6153866,5.96786576 L34.6153866,5.96786351 Z M220.769238,22.4763697 C218.692307,20.6937618 215.461553,19.3761807 210.999999,18.3686201 C206.84616,17.4385627 203.999998,16.431002 202.53846,15.2684312 C201.076929,14.1058604 200.307698,12.5557657 200.307698,10.6181477 L200.307698,10.5406426 C200.307698,8.75803385 201.076929,7.20793939 202.615391,5.96786429 C204.153852,4.7277888 206.153852,4.10775086 208.692306,4.10775086 C212.769222,4.10775086 216.615376,5.58034067 220.076915,8.44801527 L222.692292,4.96030273 C218.692284,1.70510453 214.076899,0.0775050175 208.846137,0.0775050175 C205.076914,0.0775050175 201.999991,1.08506635 199.538444,3.17769395 C197.076898,5.19281667 195.846144,7.82797733 195.846144,10.9281662 L195.846144,11.0056713 C195.846144,14.1833651 196.923059,16.6635154 198.999998,18.3686201 C201.076929,20.0737248 204.461537,21.468809 209.153853,22.4763697 C213.153861,23.3289216 215.846169,24.2589775 217.307699,25.4215484 C218.769238,26.5841192 219.461538,28.0567105 219.461538,29.9943286 L219.461538,30.0718317 C219.461538,32.0094498 218.615384,33.6370482 216.999992,34.9546285 C215.384599,36.1947033 213.230768,36.8922466 210.615384,36.8922466 C207.923076,36.8922466 205.53846,36.4272198 203.461545,35.4971623 C201.307714,34.5671049 199.230775,33.1720207 197.153844,31.2344026 L194.384613,34.4896017 C199.076921,38.7523615 204.461537,40.8449898 210.53846,40.8449898 C214.461538,40.8449898 217.692292,39.8374292 220.230769,37.7448009 C222.769223,35.6521726 224,32.9395073 224,29.6068049 L224,29.529301 C223.846138,26.6616263 222.846154,24.3364846 220.769215,22.4763712 L220.769238,22.4763697 Z M177.307696,6.3553879 C173.384619,2.5576564 168.384619,0.697542948 162.230772,0.697542948 L148.46154,0.697542948 L148.46154,40.3799622 L162.153857,40.3799622 C168.307703,40.3799622 173.307704,38.5198481 177.230781,34.7221182 C181.153866,30.9243883 183.153858,26.1965987 183.153858,20.5387547 C183.153858,14.8034052 181.230781,10.153122 177.307696,6.35539085 L177.307696,6.3553879 Z M178.538473,20.6162563 C178.538473,25.1115318 177.000012,28.8317577 174.000019,31.7769364 C171.000019,34.7221151 167.076942,36.1947064 162.153864,36.1947064 L152.923094,36.1947064 L152.923094,4.80529344 L162.153864,4.80529344 C167.076942,4.80529344 171.000019,6.27788287 174.000019,9.30056753 C177.000012,12.3232521 178.538473,16.0434784 178.538473,20.5387516 L178.538473,20.6162563 Z M69.3076955,0.387523615 L51.3076925,40.3799591 L55.8461559,40.3799591 L60.5384625,29.9168215 L82.0000042,29.9168215 L86.6153891,40.3799591 L91.384618,40.3799591 L73.4615373,0.387523615 L69.3076893,0.387523615 L69.3076955,0.387523615 Z M62.3076965,25.886579 L71.3076941,5.58034067 L80.3076925,25.8090751 L62.3076903,25.886579 L62.3076965,25.886579 Z M131.769247,20.3062382 C133.692324,18.3686201 134.692331,15.7334595 134.692331,12.5557657 L134.692331,12.4782607 C134.692331,9.30056676 133.692324,6.66540649 131.615408,4.65028338 C129.000023,2.01512272 125.230786,0.697542584 120.38463,0.697542584 L103.384624,0.697542584 L103.384624,40.3799622 L107.846165,40.3799622 L107.846165,25.0340278 L119.230783,25.0340278 L130.692316,40.4574693 L136.153862,40.4574693 L124.000012,24.2589822 C127.230779,23.6389452 129.846169,22.3213641 131.769247,20.3062413 L131.769247,20.3062382 Z M107.923092,20.9262752 L107.923092,4.80529344 L120.076942,4.80529344 C123.230793,4.80529344 125.692329,5.50283603 127.461562,6.89792081 C129.230793,8.29300598 130.15387,10.2306241 130.15387,12.6332706 L130.15387,12.7882808 C130.15387,15.2684327 129.230793,17.2835555 127.307719,18.7561437 C125.46157,20.2287327 123.000021,21.0037799 120.000026,21.0037799 L107.923104,21.0037799 L107.923104,20.9262752 L107.923092,20.9262752 Z" id="Fill-8"></path>
                        </g>
                    </g>
                    <g id="Group-8" transform="translate(0.000000, 286.000000)">
                        <circle id="Oval" fill="url(#linearGradient-2)" filter="url(#filter-3)" cx="62" cy="62" r="62"></circle>
                        <g id="25404" transform="translate(32.000000, 41.000000)" fill-rule="nonzero" fill="#FFFFFF" opacity="0.710144928">
                            <path d="M59.8980838,6.4880004 L54.5459226,1.10759247 C53.8120474,0.369289871 52.9195151,0 51.8703933,0 C50.8203067,0 49.9277744,0.369289871 49.1938992,1.10759247 L23.3767649,27.1001952 L11.8063759,15.429111 C11.0716736,14.6905312 10.1796927,14.3216571 9.13057096,14.3216571 C8.08076,14.3216571 7.18877907,14.6905312 6.45407681,15.429111 L1.10191555,20.8096575 C0.367213289,21.5480986 0,22.4450642 0,23.5002771 C0,24.5546586 0.367213289,25.4524556 1.10191555,26.1907582 L15.3481095,40.511861 L20.7006843,45.892269 C21.434973,46.6311258 22.3272296,47 23.3767649,47 C24.4258866,47 25.3181432,46.6301558 26.0528455,45.892269 L31.4052825,40.511861 L59.8980838,11.868824 C60.6320969,11.1302443 60.9999994,10.2334173 60.9999994,9.17820436 C61.0005508,8.12354575 60.6320969,7.22658014 59.8980838,6.4880004 Z" id="Shape"></path>
                        </g>
                    </g>
                    <circle id="Oval" fill="url(#linearGradient-4)" filter="url(#filter-5)" cx="33" cy="21" r="15"></circle>
                </g>
            </g>
        </g>
    </g>
</svg>