<?xml version="1.0" encoding="utf-8"?><!-- Generator: Adobe Illustrator 21.0.2, SVG Export Plug-In . SVG Version: 6.00 Build 0) --><!DOCTYPE svg PUBLIC "-//W3C//DTD SVG 1.1//EN" "http://www.w3.org/Graphics/SVG/1.1/DTD/svg11.dtd"><svg version="1.1" id="Layer_1" xmlns="http://www.w3.org/2000/svg" xmlns:xlink="http://www.w3.org/1999/xlink" x="0px" y="0px" viewBox="0 0 2550 1182" style="enable-background:new 0 0 2550 1182;" xml:space="preserve"><style type="text/css">.st0{fill:url(#SVGID_1_);}.st1{fill:#FFFFFF;}.st2{fill:url(#SVGID_2_);}.st3{fill:url(#SVGID_3_);}.st4{fill:url(#SVGID_4_);}</style><g id="Group-6"><g id="Oval-Copy-6" transform="translate(1276 160)"><linearGradient id="SVGID_1_" gradientUnits="userSpaceOnUse" x1="-1020.6155" y1="-1.2685" x2="-1021.0725" y2="-2.1605" gradientTransform="matrix(80 0 0 80 82187 340)"><stop offset="0" style="stop-color:#FF54F0"/><stop offset="1" style="stop-color:#E8793D"/></linearGradient><circle class="st0" cx="517" cy="198" r="40"/></g><path id="H1" class="st1" d="M1803.4,367.9l-3.9,2.3l-6.6-11.3l-11,6.5l6.6,11.3l-3.9,2.3l-14.7-25.1l3.9-2.3l6,10.3l11-6.5l-6-10.3l3.9-2.3L1803.4,367.9z M1815.1,361.1l-3.2,1.9l-5.4-9.2l-0.9-1.5l-0.9-1.7c-0.2,0.9-0.4,1.5-0.5,1.8l-0.9,2.5l-2.7-1.1l2.5-7l2.6-1.6L1815.1,361.1L1815.1,361.1z"/></g><g id="Group-8"><g id="Oval-Copy_1_" transform="translate(244 214)"><linearGradient id="SVGID_2_" gradientUnits="userSpaceOnUse" x1="1043.125" y1="-2.275" x2="1043.125" y2="-1.275" gradientTransform="matrix(80 0 0 80 -82933 340)"><stop offset="0" style="stop-color:#3BF58A"/><stop offset="1" style="stop-color:#3BA0C6"/></linearGradient><circle class="st2" cx="517" cy="198" r="40"/></g><path id="Combined-Shape_6_" class="st1" d="M764.9,419.4l-10.1-8.3l-4.9,16.4l15.9-4.9l11.4-3.5l-9.6-7L764.9,419.4L764.9,419.4z M738.5,398.7l31.8-9.7c1.3-0.4,2.6,0.3,3,1.6l9.7,31.8c0.4,1.3-0.3,2.6-1.6,3l-31.8,9.7c-1.3,0.4-2.6-0.3-3-1.6l-9.7-31.8C736.6,400.4,737.3,399.1,738.5,398.7z M766.1,407.6c2.5-0.8,3.9-3.4,3.2-5.9c-0.8-2.5-3.4-3.9-5.9-3.2s-3.9,3.4-3.2,5.9C761,407,763.6,408.4,766.1,407.6z"/></g><g id="Group-10"><g id="Oval-Copy-3_1_" transform="translate(166 422)"><linearGradient id="SVGID_3_" gradientUnits="userSpaceOnUse" x1="1198.9016" y1="-2.0966" x2="1199.3677" y2="-1.4256" gradientTransform="matrix(80 0 0 80 -95413 340)"><stop offset="0" style="stop-color:#FF744D"/><stop offset="1" style="stop-color:#E2056E"/></linearGradient><circle class="st3" cx="517" cy="198" r="40"/></g><path id="Combined-Shape_7_" class="st1" d="M673.9,624.5l11.3-10.5l-4.3-4.6l15.5-1.5l-2.5,15.4l-4.4-4.6l-11.2,10.5l4.3,4.6l-15.5,1.4l2.5-15.3L673.9,624.5z"/></g><g id="Group-11"><g id="Oval-Copy-2_1_" transform="translate(1370 379)"><linearGradient id="SVGID_4_" gradientUnits="userSpaceOnUse" x1="-1209.0615" y1="-2.2075" x2="-1208.6536" y2="-1.2615" gradientTransform="matrix(80 0 0 80 97227 340)"><stop offset="0" style="stop-color:#FAD961"/><stop offset="1" style="stop-color:#F75F1C"/></linearGradient><circle class="st4" cx="517" cy="198" r="40"/></g><path id="Combined-Shape_8_" class="st1" d="M1891.2,575.3l-20.8-7.2l-1.3,3.7l20.8,7.2c0.3,1.3,1.2,2.5,2.6,3s2.8,0.1,3.8-0.7l6,2.1l1.3-3.7l-6-2.1c-0.3-1.3-1.2-2.5-2.6-3C1893.7,574.1,1892.2,574.4,1891.2,575.3z M1872.6,581.3l-6-2.1l-1.3,3.7l6,2.1c0.3,1.3,1.2,2.5,2.6,3s2.8,0.1,3.8-0.7l20.8,7.2l1.3-3.7l-20.8-7.2c-0.3-1.3-1.2-2.5-2.6-3S1873.6,580.4,1872.6,581.3z M1880.2,559.1l-6-2.1l-1.3,3.7l6,2.1c0.3,1.3,1.2,2.5,2.6,3s2.8,0.1,3.8-0.7l20.8,7.2l1.3-3.7l-20.8-7.2c-0.3-1.3-1.2-2.5-2.6-3C1882.7,557.9,1881.2,558.2,1880.2,559.1z"/></g></svg>