<?xml version="1.0" encoding="utf-8"?><!-- Generator: Adobe Illustrator 21.0.2, SVG Export Plug-In . SVG Version: 6.00 Build 0) --><!DOCTYPE svg PUBLIC "-//W3C//DTD SVG 1.1//EN" "http://www.w3.org/Graphics/SVG/1.1/DTD/svg11.dtd"><svg version="1.1" id="Layer_1" xmlns="http://www.w3.org/2000/svg" xmlns:xlink="http://www.w3.org/1999/xlink" x="0px" y="0px" viewBox="0 0 2550 1182" style="enable-background:new 0 0 2550 1182;" xml:space="preserve"><style type="text/css">.st0{fill:url(#SVGID_1_);}.st1{fill:#FFFFFF;}.st2{fill:url(#SVGID_2_);}.st3{fill:url(#SVGID_3_);}.st4{fill:url(#SVGID_4_);}</style><g id="Group-15"><g id="Oval-Copy-10" transform="translate(1080 376)"><linearGradient id="SVGID_1_" gradientUnits="userSpaceOnUse" x1="-628.875" y1="-2.275" x2="-628.875" y2="-1.275" gradientTransform="matrix(80 0 0 80 50827 340)"><stop offset="0" style="stop-color:#3BF58A"/><stop offset="1" style="stop-color:#3BA0C6"/></linearGradient><circle class="st0" cx="517" cy="198" r="40"/></g><path id="Combined-Shape_5_" class="st1" d="M1585.7,587.1l30.5-8.7l1,3.4l-30.5,8.7L1585.7,587.1z M1579,563.6l30.5-8.7l1,3.4L1580,567L1579,563.6z M1597.6,571l15.2-4.4l1,3.4l-15.2,4.4L1597.6,571z M1582.8,577l8.7-7.9l2.9,10.1L1582.8,577L1582.8,577z"/></g><g id="Group-7"><g id="Oval" transform="translate(430 355)"><linearGradient id="SVGID_2_" gradientUnits="userSpaceOnUse" x1="670.8684" y1="-2.2665" x2="671.3904" y2="-1.2665" gradientTransform="matrix(80 0 0 80 -53173 340)"><stop offset="0" style="stop-color:#3AE2FF"/><stop offset="1" style="stop-color:#5631F3"/></linearGradient><circle class="st2" cx="517" cy="198" r="40"/></g><path id="Shape-2" class="st1" d="M949.7,548.6c-1.6-0.7-2.8-0.3-3.2,0.7c-0.8,1.1-0.4,2.4,1.1,3.1c1.4,0.9,2.2,2.1,2.7,3.7c0.4,1.5,0.2,3.1-0.5,4.4l-2.8,5.1c-1.5,2.7-5.3,3.8-7.9,2.3c-3-1.6-4-5.2-2.3-7.9l1-1.9c-1.2-1.7-1.8-3.3-2.2-5.2l-2.6,5c-2.7,4.8-0.9,11,4,13.9c2.4,1.1,5,1.5,7.7,0.7s4.7-2.5,6.1-4.9l2.8-5.1C956.3,557.4,954.6,551.4,949.7,548.6L949.7,548.6z M943.7,559.3c1.3,0.7,2.6,0.4,3.3-0.5c0.7-1.3,0.4-2.6-1.2-3.3c-1.4-0.9-2.2-2.1-2.7-3.7c-0.4-1.5-0.2-3.1,0.5-4.4l2.8-5.1c1.5-2.7,5.3-3.8,7.9-2.3c3,1.6,4,5.2,2.3,7.9l-1,1.9c1.1,1.5,1.8,3.3,2.1,5l2.7-4.8c2.7-4.8,0.9-11-4-13.9c-2.4-1.1-5-1.5-7.7-0.7s-4.7,2.5-6.1,4.9l-3,5.1C937.1,550.4,938.8,556.4,943.7,559.3L943.7,559.3z"/></g><g id="Group-13"><g id="Oval-Copy-9_1_" transform="translate(1317 760)"><linearGradient id="SVGID_3_" gradientUnits="userSpaceOnUse" x1="-1103.1316" y1="-2.2665" x2="-1102.6096" y2="-1.2665" gradientTransform="matrix(80 0 0 80 88747 340)"><stop offset="0" style="stop-color:#3AE2FF"/><stop offset="1" style="stop-color:#5631F3"/></linearGradient><circle class="st3" cx="517" cy="198" r="40"/></g><path id="_x2C__x2C_" class="st1" d="M1829.3,978.1l-1.8-3.2c2.2-2.2,1.6-6.2-1.5-11.9l-0.5-0.9l-3.9,2.2l-5.9-10.7l10-5.5l5.1,9.2C1836.1,966.7,1835.6,973.6,1829.3,978.1L1829.3,978.1z M1845,969.4l-1.8-3.2c2.2-2.2,1.6-6.2-1.5-11.9l-0.5-0.9l-3.9,2.2l-5.9-10.7l10-5.5l5.1,9.2C1851.8,958,1851.3,964.9,1845,969.4L1845,969.4z"/></g><g id="Group-9"><g id="Oval-Copy-8" transform="translate(167 730)"><linearGradient id="SVGID_4_" gradientUnits="userSpaceOnUse" x1="1196.8674" y1="-2.1085" x2="1197.4174" y2="-1.3964" gradientTransform="matrix(80 0 0 80 -95253 340)"><stop offset="0" style="stop-color:#FAD961"/><stop offset="1" style="stop-color:#F76B1C"/></linearGradient><circle class="st4" cx="517" cy="198" r="40"/></g><path id="Combined-Shape_9_" class="st1" d="M669.7,937.2l18.4,3.6c1.1,0.2,1.9,1.2,1.7,2.3c-0.2,1-1.3,1.7-2.4,1.5l-20.2-3.9c-1-0.2-1.7-1.2-1.5-2.2l3.6-18.6c0.2-1,1.2-1.7,2.2-1.5s1.7,1.2,1.5,2.2L669.7,937.2L669.7,937.2z M679.7,912.7l18.6,3.6c1,0.2,1.7,1.2,1.5,2.2l-3.6,18.6c-0.2,1-1.2,1.7-2.2,1.5l-18.6-3.6c-1-0.2-1.7-1.2-1.5-2.2l3.6-18.6C677.7,913.1,678.7,912.5,679.7,912.7z M677.6,931.9l15.5,3l3-15.5l-15.5-3L677.6,931.9z"/></g></svg>