<?xml version="1.0" encoding="UTF-8"?>
<svg width="382px" height="417px" viewBox="0 0 382 417" version="1.1" xmlns="http://www.w3.org/2000/svg" xmlns:xlink="http://www.w3.org/1999/xlink">
    <!-- Generator: Sketch 46.2 (44496) - http://www.bohemiancoding.com/sketch -->
    <title>wp-image</title>
    <desc>Created with Sketch.</desc>
    <defs>
        <linearGradient x1="0%" y1="0%" x2="100%" y2="100%" id="linearGradient-1">
            <stop stop-color="#FCE38A" offset="0%"></stop>
            <stop stop-color="#F38181" offset="100%"></stop>
        </linearGradient>
        <filter x="0.0%" y="0.0%" width="100.0%" height="100.0%" filterUnits="objectBoundingBox" id="filter-2">
            <feGaussianBlur stdDeviation="0" in="SourceGraphic"></feGaussianBlur>
        </filter>
        <linearGradient x1="20.4942643%" y1="11.1009768%" x2="101.999998%" y2="100.999999%" id="linearGradient-3">
            <stop stop-color="#FA69B9" offset="0%"></stop>
            <stop stop-color="#6A45D4" offset="100%"></stop>
        </linearGradient>
        <linearGradient x1="50%" y1="0%" x2="50%" y2="100%" id="linearGradient-4">
            <stop stop-color="#FFFFFF" offset="0%"></stop>
            <stop stop-color="#FFFFFF" stop-opacity="0.594174592" offset="99.4878029%"></stop>
        </linearGradient>
        <path d="M12.1451111,55.1921371 C30.0761111,21.820369 66.0336667,0 107.5,0 C134.341556,0 158.865889,11.4131447 177.699889,27.5221739 C172.317722,26.4828817 166.441056,27.6508936 160.526167,31.0285933 C146.668222,38.9567719 142.141278,61.3969023 160.105722,72.6670251 C171.323944,79.663178 175.315778,97.1785889 174.938333,107.876624 C174.570444,118.591346 148.861222,167.800401 148.861222,167.800401 L123.830444,82.0325735 C123.830444,82.0325735 122.968056,76.0161204 122.968056,74.2807885 C122.968056,72.092554 123.691889,69.4132778 125.044,67.8829438 C125.978056,66.8651049 127.399444,64.726928 129.081222,64.726928 L140.944444,64.726928 L140.944444,55.1921371 L76.4444444,55.1921371 L76.4444444,64.726928 L78.4439444,64.726928 C80.5557222,64.726928 82.6221111,67.5611446 84.6144444,69.5968225 C86.9698889,72.0234268 89.9345,81.152989 93.525,90.6234201 L102.903778,121.451783 L82.6913889,168.057841 L60.5153333,74.9100847 C60.5153333,74.9100847 61.1698889,68.5265422 62.5100556,67.4419597 C63.3843889,66.6958623 64.7269444,64.726928 66.2797222,64.726928 L66.8888889,64.726928 L66.8888889,55.1921371 L12.1451111,55.1921371 Z M24.7895,71.3798284 C24.7895,71.3798284 19.5721667,64.726928 14.0347222,64.726928 L8.41605556,64.726928 C2.99566667,76.6454166 0,92.6519469 0,107.323606 C0,151.455386 27.1234444,189.306122 65.7637222,205.434221 L24.7895,71.3798284 Z M200.007333,54.3435407 C202.049833,64.0142024 201.627,75.7467626 197.642333,88.6521021 C187.248278,122.228868 161.519944,182.636536 151.558278,205.64637 C188.949167,188.98909 215,151.796255 215,108.560745 C215,88.7569848 209.519889,70.223735 200.007333,54.3435407 Z M109.6715,145.012251 L82.1849444,212.001308 C90.3023889,213.941638 98.7733889,215 107.497611,215 C116.53,215 125.292444,213.882046 133.672667,211.805845 L109.6715,145.012251 Z" id="path-5"></path>
        <linearGradient x1="50%" y1="0%" x2="50%" y2="100%" id="linearGradient-6">
            <stop stop-color="#3BF58A" offset="0%"></stop>
            <stop stop-color="#3BA0C6" offset="100%"></stop>
        </linearGradient>
        <filter x="0.0%" y="0.0%" width="100.0%" height="100.0%" filterUnits="objectBoundingBox" id="filter-7">
            <feGaussianBlur stdDeviation="0" in="SourceGraphic"></feGaussianBlur>
        </filter>
    </defs>
    <g id="Page-1" stroke="none" stroke-width="1" fill="none" fill-rule="evenodd">
        <g id="First-Steps" transform="translate(-322.000000, -518.000000)">
            <g id="Group-6" transform="translate(322.000000, 473.000000)">
                <g id="wp-image" transform="translate(0.000000, 45.000000)">
                    <circle id="Oval" fill="url(#linearGradient-1)" filter="url(#filter-2)" cx="330" cy="15" r="15"></circle>
                    <g id="Group-4" transform="translate(0.000000, 15.000000)">
                        <circle id="Oval" fill="url(#linearGradient-3)" cx="180" cy="180" r="180"></circle>
                        <g id="33619" transform="translate(74.000000, 74.000000)" fill-rule="nonzero">
                            <g id="WordPress__x28_alt_x29_">
                                <use fill="url(#linearGradient-4)" fill-rule="evenodd" style="mix-blend-mode: soft-light;" xlink:href="#path-5"></use>
                                <use fill-opacity="0.637652853" fill="#FFFAFE" fill-rule="evenodd" xlink:href="#path-5"></use>
                            </g>
                        </g>
                    </g>
                    <g id="Group-8" transform="translate(258.000000, 293.000000)">
                        <circle id="Oval" fill="url(#linearGradient-6)" filter="url(#filter-7)" cx="62" cy="62" r="62"></circle>
                        <g id="128442" transform="translate(29.000000, 30.000000)" fill-rule="nonzero" fill="#FFFFFF">
                            <path d="M63.4615385,41 L58.3846154,41 C56.8615385,41 55.8461538,42 55.8461538,43.5 L55.8461538,49.75 C55.8461538,50.5 55.3384615,51 54.5769231,51 L11.4230769,51 C10.6615385,51 10.1538462,50.5 10.1538462,49.75 L10.1538462,43.5 C10.1538462,42 9.13846154,41 7.61538462,41 L2.53846154,41 C1.01538462,41 0,42 0,43.5 L0,58.5 C0,60 1.01538462,61 2.53846154,61 L63.4615385,61 C64.9846154,61 66,60 66,58.5 L66,43.5 C66,42 64.9846154,41 63.4615385,41 Z" id="Shape"></path>
                            <path d="M32.2,40.23125 C32.7142857,40.74375 33.4857143,41 34,41 C34.5142857,41 35.2857143,40.74375 35.8,40.23125 L51.2285714,24.85625 C51.7428571,24.34375 52,23.83125 52,23.0625 C52,22.29375 51.7428571,21.78125 51.2285714,21.26875 L47.6285714,17.68125 C47.1142857,17.16875 46.6,16.9125 45.8285714,16.9125 C45.0571429,16.9125 44.5428571,17.16875 44.0285714,17.68125 L41.4571429,20.24375 C40.6857143,21.0125 39.1428571,20.5 39.1428571,19.21875 L39.1428571,2.5625 C39.1428571,1.025 38.1142857,0 36.5714286,0 L31.4285714,0 C29.8857143,0 28.8571429,1.025 28.8571429,2.5625 L28.8571429,19.475 C28.8571429,20.5 27.5714286,21.26875 26.5428571,20.5 L23.9714286,17.9375 C23.4571429,17.425 22.9428571,17.16875 22.1714286,17.16875 C21.4,17.16875 20.8857143,17.425 20.3714286,17.9375 L16.7714286,21.525 C16.2571429,22.0375 16,22.55 16,23.31875 C16,24.0875 16.2571429,24.6 16.7714286,25.1125 L32.2,40.23125 Z" id="Shape"></path>
                        </g>
                    </g>
                </g>
            </g>
        </g>
    </g>
</svg>